<svg xmlns="http://www.w3.org/2000/svg" viewBox="0 0 155.28 73.05"><title>Asset 1</title><g id="Layer_2" data-name="Layer 2"><g id="Artwork"><path d="M46.88,1H56.3V72.05h-13L8.82,10.61l.6,61.44H0V1H13.63l33.8,60.16Z"/><path d="M59.62,62.74h9.62c6.34,0,10.45-3.52,10.45-10.85V1h9.42V48.71a19.72,19.72,0,0,1-1.24,7.54,21.11,21.11,0,0,1-4.36,6.34l-9.17,9.46H59.62Z"/><path d="M111.12,68.64A32.4,32.4,0,0,1,98.73,56.39,34.13,34.13,0,0,1,94.17,38.9a29.94,29.94,0,0,1,3.32-13.53,48.28,48.28,0,0,1,8.78-12.29l9.91-10.21A28.61,28.61,0,0,1,128.86,0c11.45,0,20.57,4.26,26.27,11.55l-7.19,7.13a24.58,24.58,0,0,0-19.08-9.21c-13.23-.3-25.52,12.33-25.22,27.4-.3,15.31,12,27,25.27,26.71A25.11,25.11,0,0,0,149,54l6.25,6.83c-6.1,7.69-15.42,12.2-26.66,12.2A35.45,35.45,0,0,1,111.12,68.64Z"/></g></g></svg>