<svg id="Artwork" xmlns="http://www.w3.org/2000/svg" viewBox="0 0 156 73"><title>NJC_Website_C1</title><path d="M47.82,1.36h9.42V72.42h-13L9.76,11l.6,61.45H.94V1.36H14.57l33.8,60.16Z"/><path d="M60.57,63.11h9.61c6.34,0,10.46-3.52,10.46-10.86V1.36h9.41V49.08a19.67,19.67,0,0,1-1.24,7.53A21,21,0,0,1,84.45,63l-9.17,9.46H60.57Z"/><path d="M112.06,69A32.3,32.3,0,0,1,99.67,56.76a34.12,34.12,0,0,1-4.55-17.49,29.94,29.94,0,0,1,3.32-13.53,48.24,48.24,0,0,1,8.77-12.29l9.91-10.21A28.61,28.61,0,0,1,129.8.37c11.45,0,20.57,4.26,26.27,11.54l-7.19,7.14A24.59,24.59,0,0,0,129.8,9.83c-13.23-.29-25.52,12.34-25.22,27.41-.3,15.31,12,27,25.27,26.71A25.12,25.12,0,0,0,150,54.38l6.25,6.84c-6.1,7.68-15.41,12.19-26.66,12.19A35.38,35.38,0,0,1,112.06,69Z"/></svg>